<?xml version="1.0" encoding="UTF-8"?><svg id="Layer_1" xmlns="http://www.w3.org/2000/svg" viewBox="0 0 170.4 190.57"><defs><style>.cls-1{fill:#594295;}</style></defs><path class="cls-1" d="m117.77,89.2H6.41V6.2h117.13c1.86-2.63,4.35-4.77,7.26-6.2H.21v95.4h117.56v-6.2Z"/><polygon class="cls-1" points="34.19 75.34 34.19 46.12 20.71 46.12 20.71 75.34 34.19 75.34"/><polygon class="cls-1" points="53.62 75.34 53.62 25.03 40.14 25.03 40.14 75.34 53.62 75.34"/><polygon class="cls-1" points="73.05 51.36 59.57 51.36 59.57 75.34 73.05 75.34 73.05 51.36"/><path class="cls-1" d="m81.97,54.06c-1.78-1.89-2.76-4.27-2.97-6.71v27.99h13.48v-10.1l-10.51-11.18Z"/><path class="cls-1" d="m127.81,7.81c-2.13,2.58-3.4,5.88-3.4,9.48,0,1.54.23,3.03.67,4.43.18.57.4,1.12.64,1.66.55,1.22,1.25,2.37,2.09,3.39,1.43,1.73,3.25,3.13,5.32,4.07,1.89.86,3.97,1.35,6.18,1.35,4.64,0,8.77-2.12,11.5-5.43.84-1.02,1.54-2.16,2.09-3.39.24-.54.46-1.09.64-1.66.44-1.4.67-2.89.67-4.43,0-3.6-1.28-6.91-3.4-9.48-1.22-1.47-2.71-2.71-4.4-3.63-2.11-1.14-4.52-1.8-7.09-1.8-2.59,0-5.01.65-7.13,1.8-1.02.56-1.96,1.24-2.83,2.01-.56.5-1.09,1.03-1.57,1.61Z"/><path class="cls-1" d="m156.5,37.18c-1.42-.29-2.93-.46-4.55-.46l-12.62,12.82s-6.2-6.26-6.2-6.26l-6.45-6.56c-.51,0-1,.02-1.48.05-1.19.08-2.25.27-3.23.54-.2.05-.4.1-.59.16-.75.24-1.42.53-2.03.86-.3.17-.59.34-.86.53-.27.19-.52.38-.75.59-.29.24-.56.49-.82.76s-.49.55-.71.85l-9.56,12.86-11.53-12.26c-.3-.31-.62-.58-.96-.82-.08-.06-.15-.11-.23-.16-.34-.22-.69-.42-1.06-.57-.05-.02-.1-.03-.14-.05-.34-.13-.68-.24-1.04-.31-.08-.02-.17-.04-.25-.05-.39-.07-.78-.11-1.17-.11-.07,0-.13,0-.2,0-.47,0-.94.05-1.4.15l-13.26-13.26c-.39-.39-.91-.59-1.42-.59-.26,0-.51.05-.75.15-.24.1-.47.24-.66.44-.78.78-.78,2.05,0,2.84l10.69,10.69,1.82,1.82c-.89.98-1.45,2.16-1.67,3.38-.07.41-.11.82-.11,1.24,0,.83.16,1.66.47,2.44.31.78.77,1.53,1.39,2.18l7.31,7.78,9.52,10.13c.42.55.9,1.07,1.49,1.49.44.31.9.56,1.37.76.04.02.09.03.13.04.37.15.74.28,1.12.36.44.1.88.15,1.33.16.2,0,.4-.03.61-.04.23-.01.47-.01.7-.05,1.82-.29,3.53-1.28,4.69-2.9l8.74-11.88v50.45c1.66-.69,3.48-1.08,5.39-1.08,3.97,0,7.56,1.66,10.12,4.32v-6.58c0-.91.74-1.65,1.65-1.65s1.65.74,1.65,1.65v26.15c4.52,1.88,8.08,5.6,9.79,10.22,2.06.13,4,.69,5.73,1.61V54.19c1.58,0,2.86,1.28,2.86,2.85v9.96s-.01,37.83-.01,37.83c6.09,0,11.03-4.94,11.03-11.03v-20.64s.03-16.55.03-16.55c0-10.16-4.98-17.58-13.91-19.43Z"/><path class="cls-1" d="m32.7,121.89c.06.34.13.68.22,1.01.01.05.03.11.04.16,0,.03.01.06.02.09.06.19.15.37.22.56.08.21.15.42.24.62.11.23.24.45.37.68.09.16.17.32.27.47.03.05.05.1.08.15.13.19.28.35.42.53.09.12.18.24.28.36.2.23.41.44.63.64.1.09.19.19.29.27.07.06.13.13.2.19.11.09.24.15.35.23.26.19.52.37.8.54.12.07.23.17.36.24.1.05.21.09.31.15,1.31.64,2.7.99,4.18.99.33,0,.65-.02.96-.05.63-.06,1.25-.19,1.84-.37.46-.14.9-.33,1.32-.54.38-.19.69-.36.98-.56.05-.03.11-.06.16-.09.08-.05.14-.12.21-.17.22-.16.43-.33.64-.5.12-.1.23-.2.35-.31.21-.2.4-.41.59-.62.07-.08.14-.14.21-.22.38-.48.67-.91.93-1.38.03-.04.06-.08.09-.13.05-.1.09-.21.14-.31.08-.17.17-.34.24-.52.07-.18.14-.36.2-.54.04-.11.09-.21.12-.33.03-.09.04-.18.07-.27.03-.12.06-.24.09-.36.06-.24.1-.49.14-.74.02-.11.04-.22.05-.34,0-.05.02-.09.02-.14.03-.32.05-.64.05-.96s-.02-.65-.05-.96c0-.05-.02-.09-.02-.14-.01-.11-.03-.22-.05-.34-.04-.25-.08-.5-.14-.74-.03-.12-.06-.24-.09-.36-.02-.09-.04-.18-.07-.27-.03-.11-.08-.22-.12-.33-.06-.18-.13-.36-.2-.54-.07-.18-.16-.35-.24-.52-.05-.1-.09-.21-.14-.31-.02-.05-.06-.08-.09-.13-.26-.46-.55-.9-.88-1.31-.11-.15-.19-.21-.25-.29-.19-.22-.38-.42-.59-.62-.11-.11-.23-.21-.35-.31-.21-.18-.42-.34-.64-.5-.07-.05-.14-.12-.21-.17-.05-.03-.11-.06-.16-.09-.3-.19-.61-.37-.93-.53-.49-.24-.92-.43-1.38-.57-.59-.18-1.21-.31-1.84-.38-.32-.03-.64-.05-.96-.05-1.48,0-2.87.36-4.12.96-.16.08-.27.12-.37.17-.13.07-.23.17-.36.24-.28.17-.54.35-.8.54-.11.08-.24.15-.35.23-.07.06-.13.13-.2.19-.1.09-.19.18-.29.27-.22.21-.43.42-.63.64-.1.11-.19.24-.28.36-.14.18-.29.34-.42.53-.03.05-.05.1-.08.15-.1.15-.18.31-.27.47-.13.22-.26.44-.37.68-.09.2-.16.41-.24.61-.07.19-.16.37-.22.56,0,.03-.01.06-.02.09-.02.05-.03.11-.04.16-.09.33-.17.67-.22,1.01-.02.1-.03.21-.05.31-.01.09-.03.17-.04.26-.03.32-.05.64-.05.96s.02.65.05.96c0,.09.03.17.04.26.01.11.03.21.05.31Z"/><path class="cls-1" d="m75.48,121.89c.06.34.13.68.22,1.01.01.05.03.11.04.16,0,.03.01.06.02.09.06.19.15.37.22.56.08.21.15.42.24.62.11.23.24.45.37.68.09.16.17.32.27.47.03.05.05.1.08.15.13.19.28.35.42.53.09.12.18.24.28.36.2.23.41.44.63.64.1.09.19.19.29.27.07.06.13.13.2.19.11.09.24.15.35.23.26.19.52.37.8.54.12.07.23.17.36.24.1.05.21.09.31.15,1.31.64,2.7.99,4.18.99s2.87-.36,4.12-.96c.16-.08.27-.12.37-.17.13-.07.23-.17.36-.24.28-.17.54-.35.8-.54.11-.08.24-.15.35-.23.07-.06.13-.13.2-.19.1-.09.19-.18.29-.28.22-.21.43-.42.63-.64.1-.12.19-.24.28-.36.14-.18.29-.34.42-.53.03-.05.05-.1.08-.15.1-.15.18-.31.27-.47.13-.22.26-.44.37-.67.09-.2.16-.41.24-.62.07-.19.16-.37.22-.56,0-.03.01-.06.02-.09.02-.05.03-.11.04-.16.09-.33.17-.67.22-1.01.02-.1.03-.21.05-.31.01-.09.03-.17.04-.26.03-.32.05-.64.05-.96s-.02-.65-.05-.96c0-.09-.03-.17-.04-.26-.01-.11-.03-.21-.05-.31-.06-.34-.13-.68-.22-1.01-.01-.05-.03-.11-.04-.16,0-.03-.01-.06-.02-.09-.06-.19-.15-.37-.22-.56-.08-.21-.15-.42-.24-.61-.11-.23-.24-.45-.37-.68-.09-.16-.17-.32-.27-.47-.03-.05-.05-.1-.08-.15-.13-.19-.28-.35-.42-.53-.09-.12-.18-.25-.28-.36-.2-.23-.41-.44-.63-.64-.1-.09-.19-.19-.29-.28-.07-.06-.13-.13-.2-.19-.11-.09-.24-.15-.35-.23-.26-.19-.52-.37-.8-.54-.12-.07-.23-.17-.36-.24-.1-.05-.21-.09-.31-.15-1.31-.64-2.7-.99-4.18-.99s-2.87.36-4.12.96c-.16.08-.27.12-.37.17-.13.07-.23.17-.36.24-.28.17-.54.35-.8.54-.11.08-.24.15-.35.23-.07.06-.13.13-.2.19-.1.09-.19.18-.29.27-.22.21-.43.42-.63.64-.1.11-.19.24-.28.36-.14.18-.29.34-.42.53-.03.05-.05.1-.08.15-.1.15-.18.31-.27.47-.13.22-.26.44-.37.68-.09.2-.16.41-.24.61-.07.19-.16.37-.22.56,0,.03-.01.06-.02.09-.02.05-.03.11-.04.16-.09.33-.17.67-.22,1.01-.02.1-.03.21-.05.31-.01.09-.03.17-.04.26-.03.32-.05.64-.05.96s.02.65.05.96c0,.09.03.17.04.26.01.11.03.21.05.31Z"/><path class="cls-1" d="m118.25,121.76c.04.25.08.5.14.74.03.12.06.23.09.34.03.1.05.21.08.31.03.09.07.17.1.26.09.25.18.49.29.73.07.16.13.31.21.46.12.24.26.46.4.69.07.11.12.22.19.33.02.03.04.05.06.07.22.32.46.63.72.92.12.14.26.26.39.39.16.16.32.32.49.47.06.05.1.1.16.15.19.16.4.31.6.45.29.2.59.39.9.56.1.06.21.1.32.15,1.3.63,2.7.99,4.18.99s2.87-.36,4.12-.96c.16-.08.27-.12.37-.17.13-.07.23-.17.36-.24.28-.17.54-.35.8-.54.11-.08.24-.15.35-.23.07-.06.13-.13.2-.19.1-.09.19-.18.29-.28.22-.21.43-.42.63-.64.1-.12.19-.24.28-.36.14-.18.29-.34.42-.53.03-.05.05-.1.08-.15.1-.15.18-.31.27-.47.13-.22.26-.44.37-.67.09-.2.16-.41.24-.62.07-.19.16-.37.22-.56,0-.03.01-.06.02-.09.02-.05.03-.11.04-.16.09-.33.17-.67.22-1.01.02-.1.03-.21.05-.31.01-.09.03-.17.04-.26.03-.32.05-.64.05-.96s-.02-.65-.05-.96c0-.09-.03-.17-.04-.26-.01-.11-.03-.21-.05-.31-.06-.34-.13-.68-.22-1.01-.02-.05-.03-.11-.04-.16,0-.03-.01-.06-.02-.09-.06-.19-.15-.37-.22-.56-.08-.21-.15-.42-.24-.61-.11-.23-.24-.45-.37-.68-.09-.16-.17-.32-.27-.47-.03-.05-.05-.1-.08-.15-.13-.19-.28-.35-.42-.53-.09-.12-.18-.25-.28-.36-.2-.23-.41-.44-.63-.64-.1-.09-.19-.19-.29-.28-.07-.06-.13-.13-.2-.19-.11-.09-.24-.15-.35-.23-.26-.19-.52-.37-.8-.54-.12-.07-.23-.17-.36-.24-.1-.05-.21-.09-.31-.15-1.31-.64-2.7-.99-4.18-.99s-2.87.36-4.12.96c-.16.08-.27.12-.37.17-.31.17-.61.36-.9.56-.21.14-.41.29-.6.45-.06.05-.1.1-.16.15-.17.15-.33.31-.49.47-.13.13-.27.25-.39.39-.26.29-.5.6-.72.92-.02.03-.04.05-.06.07-.07.1-.12.22-.19.33-.14.23-.28.45-.4.69-.08.15-.14.31-.21.46-.11.24-.2.48-.29.73-.03.09-.07.17-.1.26-.03.1-.05.21-.08.31-.03.11-.06.23-.09.34-.06.24-.1.49-.14.74-.02.11-.04.22-.05.33,0,.04-.01.08-.02.12-.03.32-.05.64-.05.96s.02.65.05.96c0,.04.01.08.02.12.01.11.03.22.05.33Z"/><path class="cls-1" d="m28.73,151.86c-.01-.05-.03-.11-.04-.16-.12-.39-.26-.76-.42-1.13-.03-.06-.06-.12-.09-.18-.16-.33-.33-.65-.52-.96-.02-.04-.04-.07-.07-.11-.37-.57-.79-1.1-1.26-1.58-.06-.07-.15-.11-.21-.18-.28-.26-.58-.51-.89-.73-.1-.08-.19-.17-.29-.24-.35-.24-.72-.44-1.11-.63-.5-.24-.98-.44-1.49-.59-.85-.25-1.74-.39-2.67-.39-.68,0-1.34.07-1.97.21-.74.16-1.44.43-2.11.75-.33.14-.58.3-.84.46-.11.07-.24.11-.34.19-.1.07-.19.17-.29.24-.31.23-.61.47-.89.74-.07.06-.15.11-.21.18-.48.48-.9,1.01-1.26,1.58-.02.04-.04.07-.07.11-.19.31-.37.63-.52.96-.03.06-.06.12-.09.18-.16.37-.31.74-.42,1.13-.02.05-.03.11-.04.16-.09.33-.17.67-.22,1.01-.02.1-.03.21-.05.31-.05.4-.09.81-.09,1.23s.04.82.09,1.23c.01.11.03.21.05.31.06.34.13.68.22,1.01.01.05.03.11.04.16.12.39.26.76.42,1.13.03.06.06.12.09.18.16.33.33.65.52.96.02.04.04.07.07.11.37.57.79,1.1,1.26,1.58.06.06.15.11.21.18.28.26.58.51.89.74.1.07.19.17.29.24.11.07.23.12.34.19.26.16.52.32.79.46.72.32,1.41.59,2.16.75.64.14,1.3.21,1.97.21.93,0,1.82-.14,2.67-.39.51-.15.99-.35,1.46-.57.42-.21.79-.41,1.14-.65.11-.07.19-.17.29-.24.31-.23.61-.47.89-.73.07-.06.15-.11.21-.18.48-.48.9-1.01,1.26-1.58.02-.04.04-.07.07-.11.19-.31.37-.63.52-.96.03-.06.06-.12.09-.18.16-.36.31-.74.42-1.13.02-.05.03-.11.04-.16.09-.33.17-.67.22-1.01.02-.1.03-.21.05-.31.05-.4.09-.81.09-1.23s-.04-.82-.09-1.23c-.01-.11-.03-.21-.05-.31-.06-.34-.13-.68-.22-1.01Z"/><path class="cls-1" d="m35.52,171.33c-.59-.59-1.23-1.12-1.92-1.59-.74-.5-1.53-.92-2.37-1.26-1.51-.62-3.17-.96-4.9-.96h-14.23c-3.76,0-7.11,1.71-9.33,4.4-.74.9-1.35,1.9-1.81,2.99-.61,1.45-.95,3.04-.95,4.71v10.95h38.92v-10.95c0-2.76-.94-5.46-2.72-7.54-.22-.26-.45-.5-.69-.74Z"/><path class="cls-1" d="m53.78,155.95c.06.34.13.68.22,1.01.02.05.03.11.04.16.12.39.26.76.42,1.13.03.06.06.12.08.18.16.33.33.65.52.96.02.04.04.07.07.11.37.57.79,1.1,1.26,1.58.06.06.15.11.21.18.28.26.58.51.89.74.1.07.19.17.29.24.27.18.55.32.84.47.1.05.2.12.3.17.49.24,1,.44,1.53.59.36.1.73.18,1.11.24.49.08.98.13,1.49.13.71,0,1.39-.08,2.06-.23.39-.09.76-.2,1.13-.33.32-.12.63-.25.94-.4.42-.2.79-.41,1.15-.65.11-.07.19-.17.29-.24.31-.23.61-.47.89-.73.07-.06.15-.11.21-.18.48-.48.9-1.01,1.26-1.58.02-.04.04-.07.07-.11.19-.31.37-.63.52-.96.03-.06.06-.12.08-.18.16-.36.31-.74.42-1.13.02-.05.03-.11.04-.16.09-.33.17-.67.22-1.01.02-.1.03-.21.05-.31.05-.4.09-.81.09-1.23s-.04-.82-.09-1.23c-.01-.11-.03-.21-.05-.31-.06-.34-.13-.68-.22-1.01-.02-.05-.03-.11-.04-.16-.12-.39-.26-.76-.42-1.13-.03-.06-.06-.12-.08-.18-.16-.33-.33-.65-.52-.96-.02-.04-.04-.07-.07-.11-.37-.57-.79-1.1-1.26-1.58-.07-.07-.15-.11-.21-.18-.28-.26-.58-.51-.89-.73-.1-.08-.19-.17-.29-.24-.35-.24-.73-.44-1.11-.63-.34-.16-.65-.3-.97-.41-.37-.13-.74-.25-1.13-.33-.66-.15-1.35-.23-2.06-.23-.51,0-1,.05-1.49.13-.38.06-.75.14-1.11.24-.53.15-1.03.36-1.52.59-.11.05-.2.12-.31.17-.28.15-.57.29-.84.47-.1.07-.19.17-.29.24-.31.23-.61.47-.89.74-.07.06-.15.11-.21.18-.48.48-.9,1.01-1.26,1.58-.02.04-.04.07-.07.11-.19.31-.37.63-.52.96-.03.06-.06.12-.08.18-.16.37-.31.74-.42,1.13-.02.05-.03.11-.04.16-.09.33-.17.67-.22,1.01-.02.1-.03.21-.05.31-.05.4-.09.81-.09,1.23s.04.82.09,1.23c.01.11.03.21.05.31Z"/><path class="cls-1" d="m78.92,171.33c-.59-.59-1.23-1.12-1.92-1.59-.74-.5-1.53-.92-2.37-1.26-1.51-.62-3.17-.96-4.9-.96h-14.23c-1.68,0-3.28.34-4.74.96-1.8.77-3.37,1.95-4.6,3.44-.74.9-1.35,1.9-1.81,2.99-.31.72-.54,1.48-.71,2.27-.16.79-.25,1.6-.25,2.44v10.95h38.92v-10.95c0-2.76-.94-5.46-2.72-7.54-.22-.26-.45-.5-.69-.74Z"/><path class="cls-1" d="m97.17,155.85c.04.25.08.5.14.74.03.12.06.24.09.36.07.24.14.47.23.7.04.1.07.21.11.31.26.65.6,1.26.99,1.83.06.09.13.17.19.26.15.19.3.38.46.57.08.09.16.18.24.27.06.07.12.14.18.2.05.05.1.08.15.12.39.37.8.72,1.25,1.03.35.24.72.44,1.1.63.34.16.63.29.93.4.37.13.74.25,1.13.34.68.15,1.38.24,2.1.24.49,0,.97-.05,1.44-.12.38-.06.75-.14,1.11-.24.54-.15,1.06-.36,1.56-.6.15-.07.28-.16.42-.24.24-.13.5-.25.73-.41.11-.07.19-.17.29-.24.31-.23.61-.47.89-.73.07-.06.15-.11.21-.18.48-.48.9-1.01,1.26-1.58.02-.04.04-.07.07-.11.19-.31.37-.63.52-.96.03-.06.06-.12.08-.18.16-.36.31-.74.42-1.13.02-.05.03-.11.04-.16.09-.33.17-.67.22-1.01.02-.1.03-.21.05-.31.05-.4.09-.81.09-1.23s-.04-.82-.09-1.23c-.01-.11-.03-.21-.05-.31-.06-.34-.13-.68-.22-1.01-.01-.05-.03-.11-.04-.16-.12-.39-.26-.76-.42-1.13-.03-.06-.06-.12-.08-.18-.16-.33-.33-.65-.52-.96-.02-.04-.04-.07-.07-.11-.37-.57-.79-1.1-1.26-1.58-.06-.07-.15-.11-.21-.18-.28-.26-.58-.51-.89-.73-.1-.08-.19-.17-.29-.24-.23-.16-.48-.28-.73-.41-.14-.08-.27-.17-.41-.24-.51-.24-1.03-.45-1.58-.6-.36-.1-.73-.18-1.11-.24-.47-.07-.95-.12-1.44-.12-.72,0-1.42.09-2.1.24-.39.09-.76.2-1.13.34-.3.11-.6.24-.89.38-.43.21-.8.41-1.15.65-.45.3-.86.65-1.25,1.03-.05.04-.1.08-.15.12-.06.06-.12.14-.18.2-.08.09-.16.18-.24.27-.16.18-.31.37-.46.57-.06.09-.13.17-.19.26-.39.57-.73,1.18-.99,1.83-.04.1-.08.21-.11.31-.08.23-.16.46-.23.7-.03.12-.06.24-.09.36-.06.24-.1.49-.14.74-.02.11-.04.22-.05.34-.04.36-.07.73-.07,1.1s.03.74.07,1.1c.01.11.03.22.05.34Z"/><path class="cls-1" d="m122.33,171.33c-.59-.59-1.23-1.12-1.92-1.59-.74-.5-1.53-.92-2.37-1.26-1.51-.62-3.17-.96-4.9-.96h-14.23c-1.68,0-3.28.34-4.74.96-1.8.77-3.37,1.95-4.6,3.44-.74.9-1.35,1.9-1.81,2.99-.31.72-.54,1.48-.7,2.27-.16.79-.25,1.6-.25,2.44v10.95h38.92v-10.95c0-2.76-.94-5.46-2.72-7.54-.22-.26-.45-.5-.69-.74Z"/><path class="cls-1" d="m143.86,147.22c-.21.18-.45.33-.64.53-.12.12-.22.25-.34.38-.03.03-.05.06-.07.08-.38.43-.72.89-1.01,1.39-.03.05-.05.1-.08.15-.29.5-.54,1.03-.73,1.58-.33.97-.53,2-.53,3.08s.19,2.11.53,3.08c.19.55.44,1.08.73,1.58.03.05.05.1.08.15.29.5.63.96,1.01,1.39.02.03.05.06.07.08.11.13.22.26.34.38.2.2.43.35.64.53.16.13.31.27.48.4.09.07.17.16.27.22.78.52,1.64.93,2.55,1.21.86.26,1.77.4,2.71.4.66,0,1.3-.07,1.93-.2.76-.16,1.47-.44,2.15-.77.26-.1.45-.24.65-.35.18-.1.37-.18.54-.29.04-.03.07-.06.11-.09.42-.29.82-.62,1.19-.98.71-.7,1.24-1.41,1.67-2.18.15-.26.27-.52.39-.78.14-.31.23-.57.32-.83.01-.04.03-.08.04-.11.08-.24.14-.49.19-.74.01-.06.03-.12.05-.18.05-.24.08-.49.12-.74,0-.07.02-.14.03-.21.03-.32.05-.64.05-.97s-.02-.65-.05-.97c0-.07-.02-.14-.03-.21-.03-.25-.07-.5-.12-.74-.01-.06-.03-.12-.05-.18-.06-.25-.12-.5-.19-.74-.01-.04-.03-.08-.04-.11-.09-.26-.18-.52-.29-.77-.15-.33-.27-.59-.41-.84-.43-.78-.96-1.49-1.58-2.1-.46-.44-.86-.77-1.29-1.06-.04-.03-.07-.06-.11-.09-.17-.11-.37-.19-.54-.29-.2-.12-.39-.25-.59-.35-.73-.33-1.44-.61-2.2-.77-.62-.13-1.27-.2-1.93-.2-.94,0-1.85.14-2.71.4-.92.28-1.78.68-2.55,1.21-.1.07-.18.15-.27.22-.17.12-.32.26-.48.4Z"/><path class="cls-1" d="m165.74,171.33c-.59-.59-1.23-1.12-1.92-1.59-1.88-1.27-4.1-2.04-6.5-2.18-.26-.01-.51-.04-.77-.04h-14.23c-.66,0-1.3.07-1.94.17-.98.16-1.92.42-2.8.79-1.8.77-3.37,1.95-4.6,3.44-.74.9-1.35,1.9-1.81,2.99-.31.72-.54,1.48-.71,2.27-.16.79-.25,1.6-.25,2.44v10.95h39.33v-10.05c0-.9-.09-1.77-.26-2.62-.52-2.54-1.78-4.81-3.54-6.57Z"/><path class="cls-1" d="m60.25,140.62c-.25-.49-.51-.97-.82-1.42-.47-.69-1-1.34-1.59-1.92-1.76-1.76-4.04-3.02-6.57-3.54-.85-.17-1.72-.26-2.62-.26h-14.23c-2.5,0-4.83.76-6.76,2.07-.97.65-1.83,1.44-2.57,2.34-.49.6-.93,1.24-1.3,1.93-.18.33-.35.68-.5,1.03,6.01,1.6,10.45,7.08,10.45,13.59,0,3.41-1.22,6.54-3.25,8.98h21.59c-1.93-2.42-3.09-5.65-3.09-8.98,0-6.8,4.84-12.48,11.26-13.79Z"/><path class="cls-1" d="m103.1,140.76c-.27-.54-.55-1.07-.89-1.56-.47-.69-1-1.34-1.59-1.92-1.76-1.76-4.03-3.02-6.57-3.54-.85-.17-1.72-.26-2.62-.26h-14.23c-2.51,0-4.83.76-6.76,2.07-.97.65-1.83,1.44-2.57,2.34-.49.6-.93,1.24-1.3,1.93-.16.29-.3.59-.43.89,6.29,1.41,11.01,7.02,11.01,13.73,0,3.41-1.22,6.54-3.25,8.98h21.59c-1.93-2.42-3.09-5.65-3.09-8.98,0-6.6,4.57-12.13,10.7-13.65Z"/><path class="cls-1" d="m113.23,135.53c-.97.65-1.83,1.44-2.57,2.34-.49.6-.93,1.24-1.3,1.93-.14.25-.26.52-.38.78,3.59.65,6.7,2.66,8.79,5.48,1.74,2.34,2.78,5.23,2.78,8.36s-1.63,6.69-3.25,8.98h21.59c-.47-.6-.9-1.41-1.28-2.09-1.15-2.04-1.82-4.39-1.82-6.89s.69-4.93,1.88-6.99c.86-1.49,1.97-2.82,3.3-3.9,1.45-1.18,3.14-2.08,4.98-2.61-.46-.97-1.03-1.89-1.71-2.71-.53-.64-1.12-1.23-1.76-1.76-.47-.39-.98-.73-1.51-1.06-1.02-.62-2.12-1.11-3.3-1.43-.28-.08-.56-.16-.84-.22-.85-.17-1.72-.26-2.62-.26h-14.23c-.76,0-1.5.08-2.22.21-1.66.31-3.2.94-4.54,1.85Z"/></svg>